<?xml version="1.0" standalone="no"?>
<!DOCTYPE svg PUBLIC "-//W3C//DTD SVG 20010904//EN"
 "http://www.w3.org/TR/2001/REC-SVG-20010904/DTD/svg10.dtd">
<svg version="1.0" xmlns="http://www.w3.org/2000/svg"
 width="184.000000pt" height="184.000000pt" viewBox="0 0 184.000000 184.000000"
 preserveAspectRatio="xMidYMid meet">
<metadata>
Created by potrace 1.11, written by Peter Selinger 2001-2013
</metadata>
<g transform="translate(0.000000,184.000000) scale(0.100000,-0.100000)"
fill="#000000" stroke="none">
<path d="M335 1306 c-105 -26 -187 -82 -241 -163 -72 -109 -108 -273 -84 -386
31 -150 176 -229 363 -198 40 7 92 23 117 37 33 19 46 22 49 12 2 -7 20 -29
40 -49 26 -27 50 -39 89 -48 186 -40 383 33 448 164 l27 56 17 -38 c49 -106
189 -161 345 -134 84 15 132 39 173 86 26 29 32 44 32 83 0 70 -12 76 -71 36
-88 -59 -201 -52 -246 15 -69 102 24 404 138 451 27 12 33 11 52 -9 19 -18 22
-33 22 -96 l0 -75 45 0 c75 0 150 66 150 132 0 39 -36 84 -87 109 -40 20 -64
24 -138 24 -241 0 -397 -143 -437 -400 l-11 -73 -21 26 c-28 36 -38 45 -132
106 -93 62 -134 106 -134 144 0 39 33 86 69 101 72 31 124 -27 105 -119 -10
-45 -9 -49 10 -54 63 -17 137 8 161 55 25 48 19 106 -14 139 -67 67 -258 80
-376 26 -33 -15 -72 -39 -87 -53 -15 -15 -29 -25 -30 -22 -2 2 -10 17 -18 34
-41 79 -186 115 -325 81z m109 -72 c21 -8 38 -75 34 -133 l-2 -46 43 -3 c26
-2 52 3 66 12 14 9 26 16 27 16 2 0 4 -24 4 -53 2 -99 48 -154 195 -237 102
-57 124 -117 65 -176 -40 -40 -92 -46 -120 -15 -18 20 -23 76 -11 129 6 28 4
32 -19 38 -29 7 -102 1 -128 -10 -13 -6 -18 -4 -18 6 0 34 -22 37 -63 7 -98
-71 -228 -57 -264 29 -45 107 40 375 135 426 31 17 35 18 56 10z"/>
</g>
</svg>
